<svg xmlns="http://www.w3.org/2000/svg" viewBox="0 0 420 222" width="420" height="222" font-family="'JetBrains Mono','Fira Code',Consolas,'Courier New',monospace"><defs><linearGradient id="g-cyan" x1="0" y1="0" x2="1" y2="0"><stop offset="0" stop-color="#00f0ff"/><stop offset="1" stop-color="#2f6bff"/></linearGradient><linearGradient id="g-purple" x1="0" y1="0" x2="1" y2="0"><stop offset="0" stop-color="#b026ff"/><stop offset="1" stop-color="#00f0ff"/></linearGradient><linearGradient id="g-green" x1="0" y1="0" x2="1" y2="0"><stop offset="0" stop-color="#39ff88"/><stop offset="1" stop-color="#00f0ff"/></linearGradient><linearGradient id="g-blue" x1="0" y1="0" x2="1" y2="0"><stop offset="0" stop-color="#2f6bff"/><stop offset="1" stop-color="#b026ff"/></linearGradient><linearGradient id="shine" x1="0" y1="0" x2="1" y2="0"><stop offset="0" stop-color="#fff" stop-opacity="0"/><stop offset=".5" stop-color="#fff" stop-opacity=".55"/><stop offset="1" stop-color="#fff" stop-opacity="0"/></linearGradient><filter id="glow" x="-30%" y="-40%" width="160%" height="180%"><feGaussianBlur stdDeviation="4" result="b"/><feMerge><feMergeNode in="b"/><feMergeNode in="SourceGraphic"/></feMerge></filter><filter id="soft" x="-20%" y="-40%" width="140%" height="180%"><feGaussianBlur stdDeviation="1.5" result="b"/><feMerge><feMergeNode in="b"/><feMergeNode in="SourceGraphic"/></feMerge></filter><pattern id="scan" width="4" height="4" patternUnits="userSpaceOnUse"><rect width="4" height="1" fill="#fff" opacity=".03"/></pattern></defs><rect x="1" y="1" width="418" height="220" rx="10" fill="#0a1222" stroke="#b026ff" stroke-width="1.4"><animate attributeName="stroke-opacity" values=".3;.8;.3" dur="4s" repeatCount="indefinite"/></rect><rect x="1" y="1" width="418" height="220" rx="10" fill="url(#scan)"/><path d="M9 25V9H25" fill="none" stroke="#b026ff" stroke-width="2.5" stroke-linecap="round" filter="url(#soft)"/><path d="M411 25V9H395" fill="none" stroke="#b026ff" stroke-width="2.5" stroke-linecap="round" filter="url(#soft)"/><path d="M9 197V213H25" fill="none" stroke="#b026ff" stroke-width="2.5" stroke-linecap="round" filter="url(#soft)"/><path d="M411 197V213H395" fill="none" stroke="#b026ff" stroke-width="2.5" stroke-linecap="round" filter="url(#soft)"/><text x="26" y="34" font-size="13" fill="#b026ff" text-anchor="start" font-weight="bold" xml:space="preserve" letter-spacing="3" filter="url(#soft)">MISSION 02</text><rect x="26" y="44" width="368" height="1.5" fill="#b026ff" opacity=".35"/><polygon points="39,62 31,75 36,75 34,86 43,71 38,71" fill="#b026ff" filter="url(#soft)" ></polygon><text x="52" y="80" font-size="19" fill="#eafcff" text-anchor="start" font-weight="bold" xml:space="preserve" letter-spacing="1" filter="url(#soft)">DISEASERISK AI</text><rect x="288" y="58" width="106" height="24" rx="5" fill="#39ff88" fill-opacity=".1" stroke="#39ff88" stroke-opacity=".8"/><circle cx="302" cy="70" r="3" fill="#39ff88" filter="url(#soft)"><animate attributeName="opacity" values="1;.3;1" dur="1.6s" repeatCount="indefinite"/></circle><circle cx="302" cy="70" r="3" fill="none" stroke="#39ff88"><animate attributeName="r" values="3;9" dur="1.6s" repeatCount="indefinite"/><animate attributeName="opacity" values=".7;0" dur="1.6s" repeatCount="indefinite"/></circle><text x="350" y="75" font-size="11" fill="#39ff88" text-anchor="middle" font-weight="bold" xml:space="preserve" letter-spacing="2">ONLINE</text><text x="28" y="112" font-size="13" fill="#7a93b0" text-anchor="start" font-weight="normal" xml:space="preserve" >ML-based disease risk prediction</text><rect x="28" y="126" width="68" height="22" rx="4" fill="#b026ff" fill-opacity=".1" stroke="#b026ff" stroke-opacity=".75"/><text x="62" y="141" font-size="11" fill="#b026ff" text-anchor="middle" font-weight="normal" xml:space="preserve" >AI / ML</text><text x="28" y="194" font-size="10" fill="#7a93b0" text-anchor="start" font-weight="normal" xml:space="preserve" letter-spacing="2">DIFFICULTY</text><rect x="112" y="182" width="160" height="14" rx="3" fill="#0f1b30" stroke="#1d3150"/><clipPath id="c23"><rect x="112" y="182" width="112.0" height="14" rx="3"/></clipPath><rect x="112" y="182" width="112.0" height="14" rx="3" fill="url(#g-purple)" filter="url(#soft)"><set attributeName="width" to="0" begin="0s"/><animate attributeName="width" from="0" to="112.0" dur="1.3s" begin="0.30000000000000004s" fill="freeze" calcMode="spline" keyTimes="0;1" keySplines=".2 .8 .2 1"/><animate attributeName="opacity" values="1;.72;1" dur="2.8s" begin="1.60s" repeatCount="indefinite"/></rect><rect x="76" y="182" width="36" height="14" fill="url(#shine)" clip-path="url(#c23)"><animate attributeName="x" from="76" to="224.0" dur="2.6s" begin="1.90s" repeatCount="indefinite"/></rect><path d="M128.0 182v14M144.0 182v14M160.0 182v14M176.0 182v14M192.0 182v14M208.0 182v14M224.0 182v14M240.0 182v14M256.0 182v14" stroke="#0a1222" stroke-width="1.6" opacity=".9"/><text x="392" y="198" font-size="18" fill="#39ff88" text-anchor="end" font-weight="bold" xml:space="preserve" filter="url(#soft)">XP +700</text></svg>