<svg xmlns="http://www.w3.org/2000/svg" viewBox="0 0 860 228" width="860" height="228" font-family="'JetBrains Mono','Fira Code',Consolas,'Courier New',monospace"><defs><linearGradient id="g-cyan" x1="0" y1="0" x2="1" y2="0"><stop offset="0" stop-color="#00f0ff"/><stop offset="1" stop-color="#2f6bff"/></linearGradient><linearGradient id="g-purple" x1="0" y1="0" x2="1" y2="0"><stop offset="0" stop-color="#b026ff"/><stop offset="1" stop-color="#00f0ff"/></linearGradient><linearGradient id="g-green" x1="0" y1="0" x2="1" y2="0"><stop offset="0" stop-color="#39ff88"/><stop offset="1" stop-color="#00f0ff"/></linearGradient><linearGradient id="g-blue" x1="0" y1="0" x2="1" y2="0"><stop offset="0" stop-color="#2f6bff"/><stop offset="1" stop-color="#b026ff"/></linearGradient><linearGradient id="shine" x1="0" y1="0" x2="1" y2="0"><stop offset="0" stop-color="#fff" stop-opacity="0"/><stop offset=".5" stop-color="#fff" stop-opacity=".55"/><stop offset="1" stop-color="#fff" stop-opacity="0"/></linearGradient><filter id="glow" x="-30%" y="-40%" width="160%" height="180%"><feGaussianBlur stdDeviation="4" result="b"/><feMerge><feMergeNode in="b"/><feMergeNode in="SourceGraphic"/></feMerge></filter><filter id="soft" x="-20%" y="-40%" width="140%" height="180%"><feGaussianBlur stdDeviation="1.5" result="b"/><feMerge><feMergeNode in="b"/><feMergeNode in="SourceGraphic"/></feMerge></filter><pattern id="scan" width="4" height="4" patternUnits="userSpaceOnUse"><rect width="4" height="1" fill="#fff" opacity=".03"/></pattern></defs><rect x="1" y="1" width="858" height="226" rx="10" fill="#0a1222" stroke="#00f0ff" stroke-width="1.4"><animate attributeName="stroke-opacity" values=".3;.8;.3" dur="4s" repeatCount="indefinite"/></rect><rect x="1" y="1" width="858" height="226" rx="10" fill="url(#scan)"/><path d="M9 25V9H25" fill="none" stroke="#00f0ff" stroke-width="2.5" stroke-linecap="round" filter="url(#soft)"/><path d="M851 25V9H835" fill="none" stroke="#00f0ff" stroke-width="2.5" stroke-linecap="round" filter="url(#soft)"/><path d="M9 203V219H25" fill="none" stroke="#00f0ff" stroke-width="2.5" stroke-linecap="round" filter="url(#soft)"/><path d="M851 203V219H835" fill="none" stroke="#00f0ff" stroke-width="2.5" stroke-linecap="round" filter="url(#soft)"/><text x="26" y="34" font-size="13" fill="#00f0ff" text-anchor="start" font-weight="bold" xml:space="preserve" letter-spacing="3" filter="url(#soft)">XP TIMELINE</text><text x="834" y="34" font-size="10" fill="#7a93b0" text-anchor="end" font-weight="normal" xml:space="preserve" letter-spacing="2">2024 → 2026</text><rect x="26" y="44" width="808" height="1.5" fill="#00f0ff" opacity=".35"/><linearGradient id="tl" x1="0" y1="0" x2="1" y2="0"><stop offset="0" stop-color="#00f0ff" stop-opacity=".2"/><stop offset=".5" stop-color="#00f0ff"/><stop offset="1" stop-color="#39ff88"/></linearGradient><rect x="40" y="97" width="780" height="2" fill="url(#tl)"/><circle r="3.5" cy="98" fill="#eafcff" filter="url(#soft)"><animate attributeName="cx" values="40;820" dur="5s" repeatCount="indefinite"/><animate attributeName="opacity" values="0;1;1;0" dur="5s" repeatCount="indefinite"/></circle><text x="150" y="80" font-size="20" fill="#00f0ff" text-anchor="middle" font-weight="bold" xml:space="preserve" letter-spacing="3" filter="url(#soft)">2024</text><polygon points="150,90 158,98 150,106 142,98" fill="#0a1222" stroke="#00f0ff" stroke-width="2" filter="url(#soft)"/><path d="M45 110V166" stroke="#00f0ff" stroke-opacity=".5" stroke-dasharray="3 4"/><path d="M45 132h14" stroke="#00f0ff" stroke-opacity=".8"/><circle cx="65" cy="132" r="3" fill="#00f0ff"/><text x="77" y="136" font-size="13" fill="#eafcff" text-anchor="start" font-weight="normal" xml:space="preserve" >Hackathon Era</text><path d="M45 166h14" stroke="#00f0ff" stroke-opacity=".8"/><circle cx="65" cy="166" r="3" fill="#00f0ff"/><text x="77" y="170" font-size="13" fill="#eafcff" text-anchor="start" font-weight="normal" xml:space="preserve" >Full-Stack Development</text><text x="430" y="80" font-size="20" fill="#00f0ff" text-anchor="middle" font-weight="bold" xml:space="preserve" letter-spacing="3" filter="url(#soft)">2025</text><polygon points="430,90 438,98 430,106 422,98" fill="#0a1222" stroke="#00f0ff" stroke-width="2" filter="url(#soft)"/><path d="M325 110V180" stroke="#00f0ff" stroke-opacity=".5" stroke-dasharray="3 4"/><path d="M325 132h14" stroke="#00f0ff" stroke-opacity=".8"/><circle cx="345" cy="132" r="3" fill="#00f0ff"/><text x="357" y="136" font-size="13" fill="#eafcff" text-anchor="start" font-weight="normal" xml:space="preserve" >Tata Power Internship</text><text x="357" y="151" font-size="10" fill="#7a93b0" text-anchor="start" font-weight="normal" xml:space="preserve" >Central Odisha Distribution Ltd</text><path d="M325 180h14" stroke="#00f0ff" stroke-opacity=".8"/><circle cx="345" cy="180" r="3" fill="#00f0ff"/><text x="357" y="184" font-size="13" fill="#eafcff" text-anchor="start" font-weight="normal" xml:space="preserve" >OCR Spot Billing</text><text x="710" y="80" font-size="20" fill="#00f0ff" text-anchor="middle" font-weight="bold" xml:space="preserve" letter-spacing="3" filter="url(#soft)">2026</text><polygon points="710,90 718,98 710,106 702,98" fill="#0a1222" stroke="#00f0ff" stroke-width="2" filter="url(#soft)"/><path d="M605 110V200" stroke="#00f0ff" stroke-opacity=".5" stroke-dasharray="3 4"/><path d="M605 132h14" stroke="#00f0ff" stroke-opacity=".8"/><circle cx="625" cy="132" r="3" fill="#00f0ff"/><text x="637" y="136" font-size="13" fill="#eafcff" text-anchor="start" font-weight="normal" xml:space="preserve" >Amazon ML Summer School</text><path d="M605 166h14" stroke="#00f0ff" stroke-opacity=".8"/><circle cx="625" cy="166" r="3" fill="#00f0ff"/><text x="637" y="170" font-size="13" fill="#eafcff" text-anchor="start" font-weight="normal" xml:space="preserve" >AI / ML Systems</text><path d="M605 200h14" stroke="#39ff88" stroke-opacity=".8"/><circle cx="625" cy="200" r="3" fill="#39ff88" filter="url(#soft)"><animate attributeName="opacity" values="1;.3;1" dur="1.6s" repeatCount="indefinite"/></circle><circle cx="625" cy="200" r="3" fill="none" stroke="#39ff88"><animate attributeName="r" values="3;9" dur="1.6s" repeatCount="indefinite"/><animate attributeName="opacity" values=".7;0" dur="1.6s" repeatCount="indefinite"/></circle><text x="637" y="204" font-size="13" fill="#39ff88" text-anchor="start" font-weight="bold" xml:space="preserve" >GenAI / Multi-Agent Systems</text></svg>