<svg xmlns="http://www.w3.org/2000/svg" viewBox="0 0 420 330" width="420" height="330" font-family="'JetBrains Mono','Fira Code',Consolas,'Courier New',monospace"><defs><linearGradient id="g-cyan" x1="0" y1="0" x2="1" y2="0"><stop offset="0" stop-color="#00f0ff"/><stop offset="1" stop-color="#2f6bff"/></linearGradient><linearGradient id="g-purple" x1="0" y1="0" x2="1" y2="0"><stop offset="0" stop-color="#b026ff"/><stop offset="1" stop-color="#00f0ff"/></linearGradient><linearGradient id="g-green" x1="0" y1="0" x2="1" y2="0"><stop offset="0" stop-color="#39ff88"/><stop offset="1" stop-color="#00f0ff"/></linearGradient><linearGradient id="g-blue" x1="0" y1="0" x2="1" y2="0"><stop offset="0" stop-color="#2f6bff"/><stop offset="1" stop-color="#b026ff"/></linearGradient><linearGradient id="shine" x1="0" y1="0" x2="1" y2="0"><stop offset="0" stop-color="#fff" stop-opacity="0"/><stop offset=".5" stop-color="#fff" stop-opacity=".55"/><stop offset="1" stop-color="#fff" stop-opacity="0"/></linearGradient><filter id="glow" x="-30%" y="-40%" width="160%" height="180%"><feGaussianBlur stdDeviation="4" result="b"/><feMerge><feMergeNode in="b"/><feMergeNode in="SourceGraphic"/></feMerge></filter><filter id="soft" x="-20%" y="-40%" width="140%" height="180%"><feGaussianBlur stdDeviation="1.5" result="b"/><feMerge><feMergeNode in="b"/><feMergeNode in="SourceGraphic"/></feMerge></filter><pattern id="scan" width="4" height="4" patternUnits="userSpaceOnUse"><rect width="4" height="1" fill="#fff" opacity=".03"/></pattern></defs><rect x="1" y="1" width="418" height="328" rx="10" fill="#0a1222" stroke="#b026ff" stroke-width="1.4"><animate attributeName="stroke-opacity" values=".3;.8;.3" dur="4s" repeatCount="indefinite"/></rect><rect x="1" y="1" width="418" height="328" rx="10" fill="url(#scan)"/><path d="M9 25V9H25" fill="none" stroke="#b026ff" stroke-width="2.5" stroke-linecap="round" filter="url(#soft)"/><path d="M411 25V9H395" fill="none" stroke="#b026ff" stroke-width="2.5" stroke-linecap="round" filter="url(#soft)"/><path d="M9 305V321H25" fill="none" stroke="#b026ff" stroke-width="2.5" stroke-linecap="round" filter="url(#soft)"/><path d="M411 305V321H395" fill="none" stroke="#b026ff" stroke-width="2.5" stroke-linecap="round" filter="url(#soft)"/><text x="26" y="34" font-size="13" fill="#b026ff" text-anchor="start" font-weight="bold" xml:space="preserve" letter-spacing="3" filter="url(#soft)">CURRENT MISSION</text><text x="394" y="34" font-size="10" fill="#7a93b0" text-anchor="end" font-weight="normal" xml:space="preserve" letter-spacing="2">QUEST LOG</text><rect x="26" y="44" width="368" height="1.5" fill="#b026ff" opacity=".35"/><text x="28" y="82" font-size="14" fill="#00f0ff" text-anchor="start" font-weight="bold" xml:space="preserve" >▸</text><text x="48" y="82" font-size="14" fill="#eafcff" text-anchor="start" font-weight="normal" xml:space="preserve" >Full-Stack Applications</text><text x="28" y="107" font-size="14" fill="#00f0ff" text-anchor="start" font-weight="bold" xml:space="preserve" >▸</text><text x="48" y="107" font-size="14" fill="#eafcff" text-anchor="start" font-weight="normal" xml:space="preserve" >AI / ML Systems</text><text x="28" y="132" font-size="14" fill="#00f0ff" text-anchor="start" font-weight="bold" xml:space="preserve" >▸</text><text x="48" y="132" font-size="14" fill="#eafcff" text-anchor="start" font-weight="normal" xml:space="preserve" >Generative AI</text><text x="28" y="157" font-size="14" fill="#00f0ff" text-anchor="start" font-weight="bold" xml:space="preserve" >▸</text><text x="48" y="157" font-size="14" fill="#eafcff" text-anchor="start" font-weight="normal" xml:space="preserve" >RAG &amp; Vector Databases</text><text x="28" y="182" font-size="14" fill="#00f0ff" text-anchor="start" font-weight="bold" xml:space="preserve" >▸</text><text x="48" y="182" font-size="14" fill="#eafcff" text-anchor="start" font-weight="normal" xml:space="preserve" >Multi-Agent Systems</text><path d="M28 212H392" stroke="#b026ff" stroke-opacity=".4" stroke-dasharray="4 4"/><text x="28" y="236" font-size="11" fill="#7a93b0" text-anchor="start" font-weight="normal" xml:space="preserve" letter-spacing="2">MISSION STATUS</text><text x="392" y="236" font-size="12" fill="#39ff88" text-anchor="end" font-weight="bold" xml:space="preserve" letter-spacing="2" filter="url(#soft)">ACTIVE</text><rect x="28" y="244" width="364" height="14" rx="3" fill="#0f1b30" stroke="#1d3150"/><clipPath id="c6"><rect x="28" y="244" width="298.5" height="14" rx="3"/></clipPath><rect x="28" y="244" width="298.5" height="14" rx="3" fill="url(#g-green)" filter="url(#soft)"><set attributeName="width" to="0" begin="0s"/><animate attributeName="width" from="0" to="298.5" dur="1.6s" begin="0.3s" fill="freeze" calcMode="spline" keyTimes="0;1" keySplines=".2 .8 .2 1"/><animate attributeName="opacity" values="1;.72;1" dur="2.8s" begin="1.90s" repeatCount="indefinite"/></rect><rect x="-8" y="244" width="36" height="14" fill="url(#shine)" clip-path="url(#c6)"><animate attributeName="x" from="-8" to="326.5" dur="2.6s" begin="2.20s" repeatCount="indefinite"/></rect><path d="M46.2 244v14M64.4 244v14M82.6 244v14M100.8 244v14M119.0 244v14M137.2 244v14M155.4 244v14M173.6 244v14M191.8 244v14M210.0 244v14M228.2 244v14M246.4 244v14M264.6 244v14M282.8 244v14M301.0 244v14M319.2 244v14M337.4 244v14M355.6 244v14M373.8 244v14" stroke="#0a1222" stroke-width="1.6" opacity=".9"/><text x="28" y="288" font-size="11" fill="#7a93b0" text-anchor="start" font-weight="normal" xml:space="preserve" letter-spacing="2">XP</text><text x="392" y="288" font-size="12" fill="#00f0ff" text-anchor="end" font-weight="bold" xml:space="preserve" filter="url(#soft)">4200 XP</text><rect x="28" y="296" width="364" height="14" rx="3" fill="#0f1b30" stroke="#1d3150"/><clipPath id="c7"><rect x="28" y="296" width="305.8" height="14" rx="3"/></clipPath><rect x="28" y="296" width="305.8" height="14" rx="3" fill="url(#g-purple)" filter="url(#soft)"><set attributeName="width" to="0" begin="0s"/><animate attributeName="width" from="0" to="305.8" dur="1.6s" begin="0.5s" fill="freeze" calcMode="spline" keyTimes="0;1" keySplines=".2 .8 .2 1"/><animate attributeName="opacity" values="1;.72;1" dur="2.8s" begin="2.10s" repeatCount="indefinite"/></rect><rect x="-8" y="296" width="36" height="14" fill="url(#shine)" clip-path="url(#c7)"><animate attributeName="x" from="-8" to="333.8" dur="2.6s" begin="2.40s" repeatCount="indefinite"/></rect><path d="M46.2 296v14M64.4 296v14M82.6 296v14M100.8 296v14M119.0 296v14M137.2 296v14M155.4 296v14M173.6 296v14M191.8 296v14M210.0 296v14M228.2 296v14M246.4 296v14M264.6 296v14M282.8 296v14M301.0 296v14M319.2 296v14M337.4 296v14M355.6 296v14M373.8 296v14" stroke="#0a1222" stroke-width="1.6" opacity=".9"/></svg>